<svg width="209" height="55" viewBox="0 0 209 55" fill="none" xmlns="http://www.w3.org/2000/svg">
<path d="M208.759 42.3839L207.135 43.8793C206.708 44.2639 206.024 44.3493 205.341 43.7939L203.888 42.4266C201.709 43.8793 200.128 44.2211 198.248 44.2211C194.659 44.2211 192.267 42.2985 192.267 38.7949C192.267 36.0604 194.275 33.7532 199.06 33.7532H202.863V32.9414C202.863 30.7197 201.88 29.7797 199.658 29.7797C197.736 29.7797 195.813 30.4633 194.147 31.1896C193.677 31.4033 193.506 31.2751 193.335 30.8051L192.523 28.8397C192.352 28.4124 192.48 28.1561 192.95 27.8997C194.958 26.9597 197.394 26.1479 200.385 26.1479C204.7 26.1479 207.135 27.9424 207.135 32.6851V39.1367C207.135 39.8631 207.221 40.0767 207.648 40.504L208.759 41.4867C209.101 41.743 209.058 42.1276 208.759 42.3839ZM199.402 41.273C200.555 41.273 201.495 40.974 202.863 40.0767V35.975H199.957C197.308 35.975 196.411 36.9577 196.411 38.624C196.411 40.2476 197.394 41.273 199.402 41.273Z" fill="#2F333E"/>
<path d="M178.38 43.3239V27.1307C178.38 26.7888 178.594 26.5752 178.893 26.5752H182.098C182.439 26.5752 182.653 26.7888 182.653 27.1307V28.9252C183.978 27.3016 185.43 26.1479 187.609 26.1479C188.507 26.1479 189.361 26.2334 189.959 26.4898C190.386 26.7034 190.301 26.9597 190.216 27.3443L189.575 29.9506C189.446 30.3778 189.19 30.4206 188.72 30.2924C188.122 30.1642 187.353 29.9933 186.413 29.9933C184.832 29.9933 183.721 30.5915 182.653 31.6596V43.3239C182.653 43.6657 182.439 43.8793 182.098 43.8793H178.893C178.594 43.8793 178.38 43.6657 178.38 43.3239Z" fill="#2F333E"/>
<path d="M173.424 22.9428C172.014 22.9428 170.903 21.8319 170.903 20.3792C170.903 18.9693 172.014 17.8584 173.424 17.8584C174.877 17.8584 175.988 18.9693 175.988 20.3792C175.988 21.8319 174.877 22.9428 173.424 22.9428ZM171.331 43.3232V27.13C171.331 26.7882 171.587 26.5745 171.886 26.5745H175.048C175.39 26.5745 175.603 26.7882 175.603 27.13V43.3232C175.603 43.665 175.39 43.8787 175.048 43.8787H171.886C171.587 43.8787 171.331 43.665 171.331 43.3232Z" fill="#2F333E"/>
<path d="M158.918 39.3932C157.722 39.3932 156.654 39.2651 155.671 39.0087C154.902 39.6069 154.689 40.3332 154.689 40.9314C154.689 41.8714 155.372 42.4695 156.697 42.4695H161.397C166.267 42.4695 168.617 44.3068 168.617 47.6394C168.617 51.8693 164.516 54.9883 157.978 54.9883C152.937 54.9883 150.074 52.9375 150.074 50.0321C150.074 48.1094 151.185 46.6567 153.492 45.7167C151.954 45.0758 151.057 43.794 151.057 41.9995C151.057 40.4614 151.954 39.0942 153.706 38.1969C151.826 37.086 150.758 35.2488 150.758 32.7707C150.758 28.6262 153.834 26.1481 158.918 26.1481C159.645 26.1481 160.371 26.1908 161.012 26.319L161.226 25.6354C162.123 23.1145 163.96 22.1318 166.396 22.1318H166.866C167.207 22.1318 167.421 22.3455 167.421 22.73V24.6527C167.421 25.0372 167.207 25.2509 166.866 25.2509H166.267C164.772 25.2509 164.131 25.4645 163.49 26.6181L163.234 26.9172C165.669 27.9853 167.036 29.9935 167.036 32.7707C167.036 37.0006 163.96 39.3932 158.918 39.3932ZM158.918 36.4878C161.268 36.4878 162.721 35.1206 162.721 32.7707C162.721 30.4207 161.268 29.0535 158.918 29.0535C156.526 29.0535 155.03 30.4207 155.03 32.7707C155.03 35.1206 156.526 36.4878 158.918 36.4878ZM153.919 49.4339C153.919 51.1429 155.543 52.2538 158.577 52.2538C162.208 52.2538 164.558 50.6302 164.558 48.4939C164.558 46.913 163.405 46.1867 160.371 46.1867H156.483C154.731 47.0412 153.919 48.0667 153.919 49.4339Z" fill="#2F333E"/>
<path d="M131.382 43.3239V27.1307C131.382 26.7888 131.595 26.5752 131.894 26.5752H135.099C135.441 26.5752 135.654 26.7888 135.654 27.1307V28.6261C137.235 27.0879 139.286 26.1479 141.636 26.1479C145.567 26.1479 148.045 28.2843 148.045 32.5996V43.3239C148.045 43.6657 147.831 43.8793 147.49 43.8793H144.285C143.943 43.8793 143.772 43.6657 143.772 43.3666V33.625C143.772 31.1469 142.619 29.9079 140.269 29.9079C138.56 29.9079 137.107 30.6342 135.654 31.8733V43.3239C135.654 43.6657 135.441 43.8793 135.099 43.8793H131.894C131.595 43.8793 131.382 43.6657 131.382 43.3239Z" fill="#2F333E"/>
<path d="M126.425 22.9428C125.015 22.9428 123.905 21.8319 123.905 20.3792C123.905 18.9693 125.015 17.8584 126.425 17.8584C127.878 17.8584 128.989 18.9693 128.989 20.3792C128.989 21.8319 127.878 22.9428 126.425 22.9428ZM124.332 43.3232V27.13C124.332 26.7882 124.588 26.5745 124.887 26.5745H128.049C128.391 26.5745 128.604 26.7882 128.604 27.13V43.3232C128.604 43.665 128.391 43.8787 128.049 43.8787H124.887C124.588 43.8787 124.332 43.665 124.332 43.3232Z" fill="#2F333E"/>
<path d="M121.853 43.3661C121.853 43.6652 121.64 43.8788 121.298 43.8788H107.369C107.027 43.8788 106.814 43.6652 106.814 43.3661V41.1444C106.814 40.6316 106.985 40.5035 107.241 40.2044L115.872 30.0355H107.796C107.455 30.0355 107.241 29.8219 107.241 29.5228V27.1301C107.241 26.7883 107.455 26.5747 107.796 26.5747H120.529C120.871 26.5747 121.084 26.7883 121.084 27.1301V29.3519C121.084 29.7792 120.999 29.9928 120.657 30.3346L111.813 40.418H121.298C121.64 40.418 121.853 40.6316 121.853 40.9734V43.3661Z" fill="#2F333E"/>
<path d="M104.614 42.3839L102.99 43.8793C102.563 44.2639 101.879 44.3493 101.196 43.7939L99.7429 42.4266C97.5638 43.8793 95.983 44.2211 94.103 44.2211C90.514 44.2211 88.1213 42.2985 88.1213 38.7949C88.1213 36.0604 90.1295 33.7532 94.9148 33.7532H98.7174V32.9414C98.7174 30.7197 97.7347 29.7797 95.513 29.7797C93.5903 29.7797 91.6676 30.4633 90.0013 31.1896C89.5313 31.4033 89.3604 31.2751 89.1895 30.8051L88.3777 28.8397C88.2068 28.4124 88.335 28.1561 88.805 27.8997C90.8131 26.9597 93.2485 26.1479 96.2393 26.1479C100.555 26.1479 102.99 27.9424 102.99 32.6851V39.1367C102.99 39.8631 103.076 40.0767 103.503 40.504L104.614 41.4867C104.955 41.743 104.913 42.1276 104.614 42.3839ZM95.2566 41.273C96.4102 41.273 97.3502 40.974 98.7174 40.0767V35.975H95.8121C93.163 35.975 92.2658 36.9577 92.2658 38.624C92.2658 40.2476 93.2485 41.273 95.2566 41.273Z" fill="#2F333E"/>
<mask id="mask0_116_9255" style="mask-type:alpha" maskUnits="userSpaceOnUse" x="54" y="14" width="33" height="30">
<path d="M69.3592 43.8795C68.932 43.8795 68.6756 43.7086 68.462 43.2814L58.5068 22.9864V43.3241C58.5068 43.6659 58.2931 43.8795 57.9513 43.8795H54.7468C54.4478 43.8795 54.2341 43.6659 54.2341 43.3241V15.3384C54.2341 15.0393 54.4478 14.8257 54.7468 14.8257H58.5495C58.9767 14.8257 59.2758 14.9539 59.4467 15.2957L70.4274 38.1542L81.3653 15.2957C81.5789 14.9111 81.878 14.8257 82.2625 14.8257H85.5952C85.8943 14.8257 86.1079 15.0393 86.1079 15.3384V43.3241C86.1079 43.6659 85.8943 43.8795 85.5952 43.8795H82.3907C82.0489 43.8795 81.8353 43.6659 81.8353 43.3241V22.9864L71.8801 43.2814C71.6664 43.7513 71.4101 43.8795 70.9828 43.8795H69.3592Z" fill="#2F333E"/>
</mask>
<g mask="url(#mask0_116_9255)">
<path d="M59.0142 31.5113C57.0915 29.375 54.4745 29.553 53.4064 29.9091L53.1393 10.9492H87.3202V45.1302H60.3493H53.1393L52.8723 43.528C52.6943 40.5015 52.6587 34.7691 53.9404 36.0509C55.2222 37.3327 58.035 35.3388 59.2812 34.1816C59.9933 34.1816 60.9369 33.6476 59.0142 31.5113Z" fill="#2F333E"/>
</g>
<path fill-rule="evenodd" clip-rule="evenodd" d="M49.4506 18.5557C49.9166 19.2184 51.0498 20.5476 51.5873 21.4965C52.1498 22.4897 52.8387 23.8819 53.0735 24.999C53.2116 25.6556 53.2853 26.578 53.1459 27.2343C52.928 28.2611 52.158 29.1771 51.5149 29.9269C51.2413 30.2458 50.6501 30.7999 50.5166 30.909C50.3948 31.0086 50.4943 30.5426 50.4888 30.3854C50.4731 29.9504 50.5046 29.3682 50.4673 28.9345C50.4153 28.3279 50.3237 27.5123 50.1414 26.9315C49.9629 26.3629 49.2317 25.0119 49.2837 25.1397C49.3735 25.3604 49.4269 25.6773 49.4782 25.9101C49.5821 26.3819 49.7231 27.0129 49.7698 27.4937C49.8424 28.2401 49.8094 29.2441 49.7798 29.9936C49.7135 31.6703 48.9695 33.1765 48.7125 33.5493C48.6321 33.6661 49.0507 33.5254 49.1774 33.4616C49.835 33.1306 50.5799 32.8557 51.4278 32.8276C52.0927 32.8056 52.9838 32.7305 53.6451 32.8023C54.2278 32.8655 55.5082 33.3677 55.5493 33.2377C55.591 33.1059 55.3252 32.9953 55.1993 32.9382C54.8639 32.7861 54.3713 32.6018 54.0033 32.4978C53.5387 32.3666 52.9058 32.2231 52.4244 32.1876C52.0135 32.1573 51.2054 32.1145 51.0521 32.2463C50.9657 32.3207 51.2425 31.9635 51.3402 31.8554C51.6791 31.4807 52.1842 31.018 52.6165 30.7565C52.9475 30.5561 53.4335 30.3539 53.8113 30.2707C54.2736 30.1689 54.9189 30.1425 55.3878 30.2071C55.9289 30.2817 56.6142 30.5638 57.1162 30.7786C57.7278 31.0404 58.5132 31.4634 59.0699 31.8277C59.5376 32.1337 60.0974 32.6646 60.5381 32.9747C60.6242 33.0353 60.7161 33.1899 60.6887 33.2916C60.6498 33.4365 60.3961 33.4867 60.2592 33.5485C60.0188 33.6571 59.6665 33.7158 59.4182 33.8051C59.0692 33.9306 58.5978 34.0954 58.2781 34.2837C57.8712 34.5233 57.4471 35.0134 57.0477 35.2655C56.7053 35.4817 56.23 35.7686 55.8355 35.8601C55.3627 35.9698 54.6923 35.9476 54.2176 35.8463C53.606 35.716 52.8523 35.3143 52.3161 34.9925C51.8264 34.6984 51.116 34.0299 50.8084 33.8295C50.4765 33.6132 49.1563 34.1653 48.4995 34.4543C47.8752 34.729 46.9059 35.5907 46.5768 35.6684C46.396 35.7109 46.7445 35.2664 46.8456 35.1104C47.1477 34.6438 47.45 34.2274 47.635 33.8101C47.9624 33.0718 48.5521 32.0033 48.3629 31.2181C48.292 30.9236 47.928 30.6609 47.7472 30.4178C47.2827 29.7929 46.5998 29.1065 46.2397 28.3051C45.9936 27.7577 45.6321 26.8626 45.6078 26.2052C45.5792 25.4317 45.8501 24.3874 46.1883 23.6912C46.5798 22.8853 47.6196 22.1478 48.0757 21.3768C48.34 20.9299 48.5699 20.27 48.749 19.7828C48.8554 19.4929 48.9331 19.0829 49.0621 18.8024C49.1072 18.7043 49.1441 18.5317 49.2445 18.4919C49.3004 18.4698 49.4133 18.5028 49.4506 18.5557Z" fill="url(#paint0_linear_116_9255)"/>
<path fill-rule="evenodd" clip-rule="evenodd" d="M27.4538 9.34115C29.637 6.77184 38.184 8.57282 40.973 11.5942C42.738 13.5063 44.6776 16.5181 44.249 20.1744C43.3684 27.686 37.7683 31.1332 31.2908 31.8922C22.3426 32.9405 25.6706 31.5691 27.8069 30.182C35.1283 25.4283 33.6084 15.3001 27.9783 11.7918C26.9356 11.1421 27.0567 9.80847 27.4538 9.34115Z" fill="#3B8234"/>
<path fill-rule="evenodd" clip-rule="evenodd" d="M21.2562 7.89877C28.3649 6.43138 32.9239 9.00977 32.0083 8.98461C20.9333 8.6809 18.238 16.08 16.8912 19.06C15.8706 21.3181 16.1522 23.8968 16.0851 27.3041C15.9562 33.8558 26.4214 50.6171 40.7539 39.7706C43.1261 37.9754 39.0432 44.532 34.6957 46.2141C24.3287 50.2254 11.3184 44.5739 7.55342 33.9401C3.2263 21.7188 11.0154 10.0128 21.2562 7.89877Z" fill="#00A6E2"/>
<path fill-rule="evenodd" clip-rule="evenodd" d="M21.34 8.56853C27.9968 6.70309 33.7245 9.82903 32.7531 9.75693C22.8305 9.02075 20.1915 16.2008 18.9086 18.9312C17.8267 21.2339 18.0652 23.8762 17.9577 27.3585C17.7577 33.8354 26.9222 52.43 41.7244 39.3264C44.1083 37.2161 43.0763 43.0161 34.9436 46.2301C24.5474 50.3387 13.1673 44.357 9.57047 34.1467C5.50634 22.6098 11.9019 11.2136 21.34 8.56853Z" fill="#FFF604"/>
<path fill-rule="evenodd" clip-rule="evenodd" d="M22.4171 8.74189C28.7345 6.77191 34.3241 9.19664 33.3916 9.19089C23.4337 9.12844 21.1672 16.1829 19.9252 18.9348C18.8955 21.2163 19.0306 23.792 18.9226 27.2175C18.7206 33.6263 27.9047 51.7771 42.5587 38.8198C44.9348 36.7189 39.5844 44.04 35.7494 45.6435C25.5398 49.9123 14.0717 44.0456 10.5112 33.9381C6.48882 22.5194 13.1556 11.6301 22.4171 8.74189Z" fill="black"/>
<path fill-rule="evenodd" clip-rule="evenodd" d="M23.7858 8.23418C30.4173 6.3732 36.1334 9.39606 35.1653 9.32852C25.251 8.63605 22.5913 15.7074 21.2938 18.4271C20.2162 20.6862 20.3993 23.2842 20.2912 26.7098C20.0892 33.1186 29.2735 51.2694 43.9275 38.3122C46.3035 36.2112 40.9532 43.5322 37.118 45.1358C26.9086 49.4045 15.4404 43.5378 11.88 33.4304C7.85763 22.0117 14.4455 10.8554 23.7858 8.23418Z" fill="#FFF604"/>
<path fill-rule="evenodd" clip-rule="evenodd" d="M25.0696 8.06399C33.0184 5.9723 39.7121 10.22 38.5698 10.0292C27.9425 8.25423 23.8924 15.2663 22.5777 18.2569C21.6002 20.4803 21.4034 23.1561 21.3291 26.4231C21.1767 33.1216 34.8412 49.7789 47.7905 33.9625C50.8052 30.2803 44.1089 42.45 38.4019 44.9655C28.2758 49.4287 16.7242 43.3675 13.1637 33.2601C9.14137 21.8414 15.6877 10.5327 25.0696 8.06399Z" fill="#01A032"/>
<defs>
<linearGradient id="paint0_linear_116_9255" x1="6318.8" y1="11112.4" x2="16873.2" y2="18215.4" gradientUnits="userSpaceOnUse">
<stop stop-color="#009F31"/>
<stop offset="0.949"/>
</linearGradient>
</defs>
</svg>
